<svg xmlns="http://www.w3.org/2000/svg" viewBox="0 0 239.889 58.602" class="cursor-pointer h-8 w-auto sm:h-10" alt="Datacie"><defs><linearGradient id="logo-datacie_svg__f" x1="0" x2="1" y1="0" y2="0" gradientTransform="scale(1540.423 -1540.423)rotate(-65.556 -1.434 -2.384)" gradientUnits="userSpaceOnUse" spreadMethod="pad"><stop offset="0" style="stop-opacity:1;stop-color:#319d94"></stop><stop offset="0.203" style="stop-opacity:1;stop-color:#319d94"></stop><stop offset="1" style="stop-opacity:1;stop-color:#34b88b"></stop></linearGradient><linearGradient id="logo-datacie_svg__d" x1="0" x2="1" y1="0" y2="0" gradientTransform="scale(-1512.765 1512.765)rotate(-66.176 2.17 3.075)" gradientUnits="userSpaceOnUse" spreadMethod="pad"><stop offset="0" style="stop-opacity:1;stop-color:#338399"></stop><stop offset="1" style="stop-opacity:1;stop-color:#336b9b"></stop></linearGradient><linearGradient id="logo-datacie_svg__b" x1="0" x2="1" y1="0" y2="0" gradientTransform="scale(-1482.3 1482.3)rotate(-66.176 2.359 3.058)" gradientUnits="userSpaceOnUse" spreadMethod="pad"><stop offset="0" style="stop-opacity:1;stop-color:#36449a"></stop><stop offset="1" style="stop-opacity:1;stop-color:#345f9b"></stop></linearGradient><clipPath id="logo-datacie_svg__e" clipPathUnits="userSpaceOnUse"><path d="M2740.95 5521.8v-847.27c0-37.2-18.61-71.95-49.93-92.51l-610.85-407.23-7.84-5.39v1066.98c0 28.83 16.3 55.19 42.08 68.09l153.71 76.85 236.41 117.96 150.76 75.38c39.16 19.58 85.66-8.81 85.66-52.86"></path></clipPath><clipPath id="logo-datacie_svg__c" clipPathUnits="userSpaceOnUse"><path d="M2504.57 5646.59v-54.81l-236.46-118.41-278.51-139.04v-905.49l-153.22-102.31v1034.68c0 28.85 16.31 55.16 42.12 68.06l389.61 194.84 150.74 75.37c39.7 19.57 85.72-8.79 85.72-52.89"></path></clipPath><clipPath id="logo-datacie_svg__a" clipPathUnits="userSpaceOnUse"><path d="M2268.11 5771.45v-55.31l-514.4-257.02v-871.88l-153.65-102.67-.07.07v1001.35c0 28.86 16.31 55.24 42.12 68.14l540.35 270.14c39.63 19.56 85.65-8.8 85.65-52.82"></path></clipPath></defs><path d="M-62.42 53.262q2.615 0 4.517-2.106T-56 46.233q0-2.905-1.99-4.982t-4.778-2.077h-4.3v14.088zm7.131.146q-2.831 3.05-6.811 3.05h-8.453V35.978h7.785q4.27 0 7.29 3.006 3.022 3.006 3.021 7.248 0 4.124-2.832 7.175M-37.116 49.021H-30l-3.573-8.017zm8.366 2.905h-9.644l-1.975 4.531h-3.776l9.672-20.478h1.83l9.673 20.478h-3.747zM.939 39h-6.71v17.457h-3.573V39h-6.71v-3.02H.939zM14.796 49.021h7.117l-3.573-8.017zm8.366 2.905h-9.644l-1.975 4.531H7.767l9.672-20.478h1.83l9.673 20.478h-3.747zM51.398 52.608a7.1 7.1 0 0 0 2.47-2.105l2.759 2.265a10.5 10.5 0 0 1-3.718 2.862 11 11 0 0 1-4.706 1.03q-4.473.001-7.64-3.064-3.165-3.064-3.166-7.363 0-4.329 3.167-7.393 3.165-3.064 7.639-3.064 2.498 0 4.706 1.045a10.7 10.7 0 0 1 3.718 2.876l-2.76 2.266a7.2 7.2 0 0 0-2.469-2.12 6.7 6.7 0 0 0-3.195-.785q-2.963 0-5.04 2.033t-2.077 5.142q0 3.078 2.077 5.112t5.04 2.033a6.8 6.8 0 0 0 3.195-.77M71.618 56.457h-3.602V35.98h3.602zM99.534 53.436v3.021H84.138V35.98h14.786V39h-11.3v6.072h9.499v2.905h-9.499v5.46z" style="fill:#41434f;fill-opacity:1;fill-rule:nonzero;stroke:none;stroke-width:0.03527778" transform="translate(140.355 -18.99)"></path><g clip-path="url(#logo-datacie_svg__a)" transform="matrix(.03528 0 0 -.03528 -56.444 205.69)"><path d="M2268.11 5771.45v-55.31l-514.4-257.02v-871.88l-153.65-102.67-.07.07v1001.35c0 28.86 16.31 55.24 42.12 68.14l540.35 270.14c39.63 19.56 85.65-8.8 85.65-52.82" style="fill:url(#logo-datacie_svg__b);fill-opacity:1;fill-rule:nonzero;stroke:none"></path></g><g clip-path="url(#logo-datacie_svg__c)" transform="matrix(.03528 0 0 -.03528 -56.444 205.69)"><path d="M2504.57 5646.59v-54.81l-236.46-118.41-278.51-139.04v-905.49l-153.22-102.31v1034.68c0 28.85 16.31 55.16 42.12 68.06l389.61 194.84 150.74 75.37c39.7 19.57 85.72-8.79 85.72-52.89" style="fill:url(#logo-datacie_svg__d);fill-opacity:1;fill-rule:nonzero;stroke:none"></path></g><g clip-path="url(#logo-datacie_svg__e)" transform="matrix(.03528 0 0 -.03528 -56.444 205.69)"><path d="M2740.95 5521.8v-847.27c0-37.2-18.61-71.95-49.93-92.51l-610.85-407.23-7.84-5.39v1066.98c0 28.83 16.3 55.19 42.08 68.09l153.71 76.85 236.41 117.96 150.76 75.38c39.16 19.58 85.66-8.81 85.66-52.86" style="fill:url(#logo-datacie_svg__f);fill-opacity:1;fill-rule:nonzero;stroke:none"></path></g><path d="M-134.932 62.852v7.246l-3.695-2.468-1.726-1.156z" style="fill:#4374b9;fill-opacity:1;fill-rule:nonzero;stroke:none;stroke-width:0.03527778" transform="translate(140.355 -18.99)"></path><path d="M-126.593 68.428v7.246l-5.423-3.624 5.405-3.61z" style="fill:#0dacbb;fill-opacity:1;fill-rule:nonzero;stroke:none;stroke-width:0.03527778" transform="translate(140.355 -18.99)"></path></svg>